<?xml version="1.0" encoding="utf-8"?>
<!-- Generator: Adobe Illustrator 21.1.0, SVG Export Plug-In . SVG Version: 6.00 Build 0)  -->
<svg version="1.1" id="Layer_1" xmlns="http://www.w3.org/2000/svg" xmlns:xlink="http://www.w3.org/1999/xlink" x="0px" y="0px"
	 width="125px" height="148.8px" viewBox="0 0 125 148.8" style="enable-background:new 0 0 125 148.8;" xml:space="preserve">
<style type="text/css">
	.st0{fill:#FFFFFF;}
</style>
<path class="st0" d="M102.4,140.3v6.4h1.2c0,0,0-2.4,0-2.7c0.1,0,0.1,0,0.2,0c0.1,0.1,1.7,2.7,1.7,2.7h1.4c0,0-1.7-2.6-1.9-2.8
	c0.8-0.2,1.4-0.8,1.4-1.7c0-0.9-0.6-1.9-2.1-1.9H102.4z M104.1,141.2c1,0,1.1,0.5,1.1,0.9c0,0.6-0.3,1-1.5,1c0,0-0.1,0-0.1,0
	c0-0.2,0-1.7,0-1.9C103.7,141.2,104.1,141.2,104.1,141.2z M108.6,143.5c0,2.4-1.9,4.3-4.3,4.3c-2.4,0-4.3-1.9-4.3-4.3
	c0-2.4,1.9-4.3,4.3-4.3C106.6,139.2,108.6,141.1,108.6,143.5z M104.2,138.3c-2.9,0-5.2,2.4-5.2,5.3c0,2.9,2.4,5.2,5.2,5.2
	c2.9,0,5.3-2.3,5.3-5.2C109.5,140.6,107.2,138.3,104.2,138.3z M62.5,148.8c-3.9-1.7-35.5-15.5-45.7-23.9c-11-9-16.8-22-16.8-37.4
	V13.9C17.4,4.7,38.4,0,62.5,0c24.1,0,45.1,4.7,62.5,13.9v73.6c0,15.5-5.8,28.4-16.8,37.4C98.1,133.1,66.2,147.2,62.5,148.8z
	 M5.7,87.4c0,13.7,5.1,25.2,14.7,33c8.5,6.9,34.7,18.8,42.1,22c7.3-3.2,33.4-14.9,42-22c9.7-8,14.7-19.2,14.7-33v-72
	C82.9,12,39.8,14.1,5.7,45.4V87.4z M11.3,83.1V48.9h10.9v34.7c0,3.1,0.7,7.6,5.7,7.6c2.2,0,4-0.5,5.1-1.3v-41h10.9v47.2
	c-4.2,2.8-9.7,4.4-16.4,4.4C16.7,100.4,11.3,94.6,11.3,83.1z M60.3,122.5H49.5V51.7c3.9-2.5,8.7-3.9,14.7-3.9
	c13,0,20.1,9.8,20.1,25.7c0,15.9-6.9,26.8-19,26.8c-2.2,0-3.8-0.3-4.9-0.6V122.5z M60.3,90.7c0.8,0.3,2.1,0.7,3.5,0.7
	c6.3,0,9.2-5.7,9.2-17.6c0-12.2-2.6-17.2-8.9-17.2c-1.5,0-3,0.3-3.9,0.8V90.7z M86.7,62c0-8.8,7.4-14,14.6-14.2
	c6-0.2,10,2.1,11.9,3.5v9.5c-2.3-2.3-5.9-4.4-9.7-4.5c-3.1,0-6.3,1.3-6.4,5.2c-0.1,4,3.1,5.5,7.2,7.9c9.1,5.3,10.8,10.1,10.6,16.5
	c-0.2,7-5,14.5-15.7,14.5c-4.3,0-8.5-1.3-12-3.4V87c2.8,2.5,6.9,4.4,10.4,4.4c4,0,6.6-2.3,6.5-6.1c-0.1-3.4-2-5.3-6.8-8.1
	C88.3,72.1,86.7,67.7,86.7,62z"/>
</svg>
