<?xml version="1.0" encoding="utf-8"?>
<!-- Generator: Adobe Illustrator 21.1.0, SVG Export Plug-In . SVG Version: 6.00 Build 0)  -->
<svg version="1.1" id="Lag_1" xmlns="http://www.w3.org/2000/svg" xmlns:xlink="http://www.w3.org/1999/xlink" x="0px" y="0px"
	 width="250px" height="71.5px" viewBox="0 0 250 71.5" style="enable-background:new 0 0 250 71.5;" xml:space="preserve">
<style type="text/css">
	.st0{fill:#FFFFFF;}
</style>
<rect x="0.3" y="33.6" class="st0" width="249.1" height="5.6"/>
<path class="st0" d="M14.5,71c-1.1,0.2-1.9,0.4-1.9,0.4l-0.2-0.2v-2.1c0,0-1.7,2.3-5,2.3c-4.5,0-7.4-3.2-7.4-8.8
	c0-2.1,0.5-4.1,1.2-5.5c1.4-2.8,3.9-4.6,7.6-4.6c2.4,0,3.5,0.7,3.5,0.7v-2c0-2.5-0.1-3.4-0.4-4c-0.5-0.7-1.5-0.8-2-0.9v-0.7
	c0.3,0,2.2-0.1,3.9-0.4c1.1-0.2,1.7-0.4,1.9-0.5l0.2,0.2c-0.1,1.4-0.1,4.2-0.1,7.1V65c0,2.5,0.1,3.5,0.4,4.1
	c0.5,0.8,1.5,0.8,1.8,0.9v0.8C18.1,70.7,16.1,70.8,14.5,71z M12.4,55.5c0,0-1-1.4-3.4-1.4c-3.8,0-5,3.1-5,8c0,4.1,1.4,7.3,5.2,7.3
	c2.3,0,3.3-0.9,3.3-0.9S12.4,55.5,12.4,55.5z"/>
<path class="st0" d="M23.3,60.9v0.3c0,0.9,0.1,2.1,0.2,3c0.6,3.3,2.4,5.1,5.5,5.1c3,0,4.3-1,4.3-1l0.4,0.5c0,0-1.7,2.5-6.2,2.5
	c-4.8,0-7.9-3.3-7.9-8.9c0-5.2,2.4-10,8-10c3.5,0,4.8,1.9,5.3,2.8c1,1.6,1.1,3.4,1.1,5.1v0.4L23.3,60.9L23.3,60.9z M30.2,59.1
	c0-2.1-0.3-5-3.3-5s-3.5,2.9-3.6,5.5h6.9C30.2,59.5,30.2,59.1,30.2,59.1z"/>
<path class="st0" d="M51.6,71.1c-2.4,0-4,0.2-4,0.2v-0.7c0.6-0.1,1.1-0.3,1.4-0.7c0.4-0.5,0.6-1.1,0.7-3.3c0.1-1.2,0.1-2.6,0.1-3.7
	c0-1.6-0.1-3.3-0.1-4.2c-0.2-1.4-0.4-3.9-4-3.9c-2.4,0-3.5,0.9-3.5,0.9v9.9c0,2.8,0.1,3.6,0.5,4.2c0.3,0.4,1,0.7,1.5,0.7v0.7
	c0,0-1.8-0.2-3.8-0.2c-2.3,0-4.1,0.2-4.1,0.2v-0.7c0.4-0.1,1.2-0.2,1.7-0.9c0.6-0.7,0.6-2,0.6-5.2v-5.3c0-2.5-0.1-3.5-0.4-4.1
	c-0.5-0.8-1.5-0.8-1.8-0.9v-0.8c0,0,2-0.1,3.6-0.3c1.1-0.2,1.9-0.4,1.9-0.4l0.2,0.1v2.1c0,0,1.7-2.3,5.3-2.3c3.3,0,5,1.5,5.6,3.9
	c0.2,0.9,0.3,2.4,0.3,3.2v5.8c0,2.7,0.1,3.6,0.6,4.2c0.3,0.4,0.9,0.7,1.6,0.7v0.7C55.4,71.2,53.8,71.1,51.6,71.1z"/>
<path class="st0" d="M69.8,71.1c-2.4,0-4.1,0.2-4.1,0.2v-0.7c0.4-0.1,1.1-0.2,1.7-0.9c0.6-0.7,0.6-2,0.6-5.2v-13
	c0-2.5-0.1-3.4-0.4-4c-0.5-0.7-1.4-0.8-1.9-0.9v-0.7c0.3,0,2.2-0.1,3.9-0.4c1.1-0.2,1.7-0.4,1.9-0.5l0.2,0.2
	c-0.1,1.4-0.2,4.2-0.2,7.1v13.4c0,2.7,0.1,3.6,0.6,4.2c0.3,0.4,1,0.7,1.6,0.7v0.7C73.7,71.2,71.8,71.1,69.8,71.1z"/>
<path class="st0" d="M79.5,60.9v0.3c0,0.9,0.1,2.1,0.2,3c0.6,3.3,2.4,5.1,5.5,5.1c3,0,4.3-1,4.3-1l0.4,0.5c0,0-1.7,2.5-6.2,2.5
	c-4.8,0-7.9-3.3-7.9-8.9c0-5.2,2.4-10,8-10c3.5,0,4.8,1.9,5.3,2.8c1,1.6,1.1,3.4,1.1,5.1v0.4L79.5,60.9L79.5,60.9z M86.4,59.1
	c0-2.1-0.3-5-3.3-5c-3,0-3.5,2.9-3.6,5.5h6.9V59.1z"/>
<path class="st0" d="M106.4,56.5l-5.7,14.7l-2.1,0.3l-5.3-15c-0.6-1.8-0.9-2.8-2-2.8V53c0,0,1.6,0.1,3.5,0.1c2.1,0,3.7-0.1,3.7-0.1
	v0.7c-0.7,0.1-1.8,0.2-1.8,1.4c0,0.5,0.2,1.1,0.5,2.1l2.5,7.1c0.8,2.2,1,3.3,1,3.3s0.2-1,1-3.2l2.5-7.2c0.3-1,0.5-1.7,0.5-2.2
	c0-1.1-0.9-1.2-1.7-1.3v-0.7c0,0,1.3,0.1,2.9,0.1c1.8,0,2.9-0.1,2.9-0.1v0.7C107.5,53.7,107.1,54.7,106.4,56.5z"/>
<path class="st0" d="M113.1,60.9v0.3c0,0.9,0.1,2.1,0.2,3c0.6,3.3,2.4,5.1,5.5,5.1c3,0,4.3-1,4.3-1l0.4,0.5c0,0-1.7,2.5-6.2,2.5
	c-4.8,0-7.9-3.3-7.9-8.9c0-5.2,2.4-10,8-10c3.5,0,4.8,1.9,5.3,2.8c1,1.6,1.1,3.4,1.1,5.1v0.4L113.1,60.9L113.1,60.9z M120,59.1
	c0-2.1-0.3-5-3.3-5c-3,0-3.5,2.9-3.6,5.5h6.9L120,59.1L120,59.1z"/>
<path class="st0" d="M141.5,71.1c-2.4,0-4,0.2-4,0.2v-0.7c0.6-0.1,1.1-0.3,1.4-0.7c0.4-0.5,0.6-1.1,0.7-3.3c0.1-1.2,0.1-2.6,0.1-3.7
	c0-1.6-0.1-3.3-0.1-4.2c-0.2-1.4-0.4-3.9-4-3.9c-2.4,0-3.5,0.9-3.5,0.9v9.9c0,2.8,0.1,3.6,0.5,4.2c0.3,0.4,1,0.7,1.5,0.7v0.7
	c0,0-1.8-0.2-3.8-0.2c-2.3,0-4.1,0.2-4.1,0.2v-0.7c0.4-0.1,1.2-0.2,1.7-0.9c0.6-0.7,0.6-2,0.6-5.2v-5.3c0-2.5-0.1-3.5-0.4-4.1
	c-0.5-0.8-1.5-0.8-1.8-0.9v-0.8c0,0,2-0.1,3.6-0.3c1.1-0.2,1.9-0.4,1.9-0.4l0.2,0.1v2.1c0,0,1.7-2.3,5.3-2.3c3.3,0,5,1.5,5.6,3.9
	c0.2,0.9,0.3,2.4,0.3,3.2v5.8c0,2.7,0.1,3.6,0.6,4.2c0.3,0.4,0.9,0.7,1.6,0.7v0.7C145.3,71.2,143.7,71.1,141.5,71.1z"/>
<path class="st0" d="M161.5,71c-1.1,0.2-1.9,0.4-1.9,0.4l-0.2-0.2v-2.1c0,0-1.7,2.3-5,2.3c-4.5,0-7.4-3.2-7.4-8.8
	c0-2.1,0.5-4.1,1.2-5.5c1.4-2.8,3.9-4.6,7.6-4.6c2.4,0,3.5,0.7,3.5,0.7v-2c0-2.5-0.1-3.4-0.4-4c-0.5-0.7-1.5-0.8-2-0.9v-0.7
	c0.3,0,2.2-0.1,3.9-0.4c1.1-0.2,1.7-0.4,1.9-0.5l0.2,0.2c-0.1,1.4-0.1,4.2-0.1,7.1V65c0,2.5,0.1,3.5,0.4,4.1
	c0.5,0.8,1.5,0.8,1.8,0.9v0.8C165.1,70.7,163.1,70.8,161.5,71z M159.3,55.5c0,0-1-1.4-3.4-1.4c-3.8,0-5,3.1-5,8
	c0,4.1,1.4,7.3,5.2,7.3c2.3,0,3.3-0.9,3.3-0.9L159.3,55.5L159.3,55.5z"/>
<path class="st0" d="M171.1,60.9v0.3c0,0.9,0.1,2.1,0.2,3c0.6,3.3,2.4,5.1,5.5,5.1c3,0,4.3-1,4.3-1l0.4,0.5c0,0-1.7,2.5-6.2,2.5
	c-4.8,0-7.9-3.3-7.9-8.9c0-5.2,2.4-10,8-10c3.5,0,4.8,1.9,5.3,2.8c1,1.6,1.1,3.4,1.1,5.1v0.4L171.1,60.9L171.1,60.9z M178,59.1
	c0-2.1-0.3-5-3.3-5c-3,0-3.5,2.9-3.6,5.5h6.9L178,59.1L178,59.1z"/>
<path class="st0" d="M205.3,71.4c-2,0-2.5-1.6-2.5-2.2c0,0-1.4,2.3-4.8,2.3c-4,0-4.9-2.7-4.9-4.8c0-1.4,0.4-3.5,2.9-4.4
	c1.4-0.5,3.7-0.7,6.7-0.7v-1.4c0-2.1-0.1-3.2-0.6-4.1c-0.6-1.1-1.8-1.3-2.9-1.3c-2.6,0-3.7,2.1-3.7,2.1l-0.8-0.5
	c0,0,1.1-3.7,5.8-3.7c2.9,0,4.3,1.1,5,2.5c0.6,1.1,0.7,2.5,0.7,4.8c0,2-0.1,5.2-0.1,7.1c0,1.1,0.1,2.2,1.3,2.2c0.6,0,0.9-0.3,1-0.3
	l0.4,0.5C208.1,70.7,207,71.4,205.3,71.4z M202.7,62.7c-2.2,0.1-3.5,0.3-4.3,0.6c-1.2,0.5-1.7,1.6-1.7,2.9c0,1.2,0.4,3,3,3
	c1.9,0,2.9-0.9,2.9-0.9L202.7,62.7L202.7,62.7z"/>
<path class="st0" d="M223.8,56.5l-5.7,14.7l-2.1,0.3l-5.3-15c-0.6-1.8-0.9-2.8-2-2.8V53c0,0,1.6,0.1,3.5,0.1c2.1,0,3.7-0.1,3.7-0.1
	v0.7c-0.7,0.1-1.8,0.2-1.8,1.4c0,0.5,0.2,1.1,0.5,2.1l2.5,7.1c0.7,2.2,1,3.3,1,3.3s0.2-1,1-3.2l2.5-7.2c0.3-1,0.5-1.7,0.5-2.2
	c0-1.1-0.9-1.2-1.7-1.3v-0.7c0,0,1.3,0.1,2.9,0.1c1.8,0,2.9-0.1,2.9-0.1v0.7C224.9,53.7,224.5,54.7,223.8,56.5z"/>
<path class="st0" d="M231.9,71.1c-2.3,0-4.1,0.2-4.1,0.2v-0.7c0.4-0.1,1.2-0.2,1.7-0.9c0.6-0.7,0.6-2,0.6-5.2v-5.3
	c0-2.5-0.1-3.5-0.4-4.1c-0.5-0.8-1.5-0.8-1.8-0.9v-0.8c0,0,2.1-0.1,3.8-0.3c1.1-0.2,1.9-0.4,1.9-0.4l0.2,0.1
	c-0.1,0.9-0.1,5.1-0.1,6.9v5.8c0,2.7,0.1,3.6,0.6,4.2c0.3,0.4,0.9,0.7,1.6,0.7v0.7C235.8,71.2,234,71.1,231.9,71.1z M231.7,50.3
	c-1.2,0-2.1-0.7-2.1-1.9c0-1.2,0.8-2,2.2-2c1.2,0,2.1,0.6,2.1,1.9C234,49.6,233.2,50.3,231.7,50.3z"/>
<path class="st0" d="M243.4,71.5c-2.9,0-4.6-0.7-4.6-0.7v-0.9c0-2.1-0.2-3.3-0.2-3.3h0.8c0.1,1,0.5,2,1.1,2.6c0.7,0.7,1.7,1,2.9,1
	c2.1,0,3.3-1,3.3-2.8c0-1.6-0.7-2.2-2.4-3.3l-2.4-1.6c-1.1-0.7-2.9-1.8-2.9-4.8c0-1.6,0.6-3.3,2.4-4.2c1-0.5,2.1-0.8,3.6-0.8
	c2.7,0,4.4,0.5,4.4,0.5s-0.2,1.1-0.2,2c0,1.3,0.1,2,0.1,2h-0.8c-0.1-0.9-0.3-1.6-0.8-2.1c-0.6-0.7-1.6-1-2.8-1
	c-2.1,0-2.9,1.1-2.9,2.6c0,1.5,0.8,2.2,2.1,2.9l2.3,1.4c1.8,1.1,3.5,2.4,3.5,5.2C250,69.9,247.3,71.5,243.4,71.5z"/>
<g>
	<path class="st0" d="M18,18h-6v3.5c0,0.5,0.3,1.1,1.2,1.1h4.5v5.2H0.3v-5.2h2.5c0.9,0,1.2-0.5,1.2-1.1V7c0-0.5-0.3-1.1-1.2-1.1H0.3
		V0.6h18.1c6,0,10.2,3.6,10.2,8.8C28.6,14.9,24.7,18,18,18z M16.8,5.9H12v7h4.7c2.2,0,3.7-1.3,3.7-3.4C20.4,7.5,18.9,5.9,16.8,5.9z"
		/>
	<path class="st0" d="M43.5,28.6c-10.2,0-14.1-5.6-14.1-14.7C29.4,6.7,33.5,0,43.2,0c9.3,0,14.3,4.8,14.3,14
		C57.6,23.2,52.4,28.6,43.5,28.6z M43.5,5.1c-4.7,0-5.5,3.5-5.5,9.4c0,4.8,0.7,8.5,5.5,8.5c4.2,0,5.5-3.3,5.5-8.4
		C48.9,8.5,48,5.1,43.5,5.1z"/>
	<path class="st0" d="M58.4,27.8v-5.2h2.5c0.9,0,1.2-0.5,1.2-1.1V7c0-0.5-0.3-1.1-1.2-1.1h-2.5V0.6h16.2v5.2h-3.3
		c-0.9,0-1.2,0.5-1.2,1.1v13.8c0,1.1,0.6,1.8,2.7,1.8c3.5,0,5.6-0.7,5.8-4.7l0.1-2.1h5.6v12L58.4,27.8L58.4,27.8z"/>
	<path class="st0" d="M86,27.8v-5.2h2.8c0.9,0,1.2-0.5,1.2-1.1V7c0-0.5-0.3-1.1-1.2-1.1H86V0.6h16.3v5.2h-2.8
		c-0.9,0-1.2,0.5-1.2,1.1v14.5c0,0.5,0.3,1.1,1.2,1.1h2.8v5.2H86z"/>
	<path class="st0" d="M126.6,12.8v-5c0-1-0.6-1.9-1.8-1.9h-2.5v15.6c0,0.5,0.3,1.1,1.2,1.1h3.3v5.2h-17v-5.2h3.3
		c0.9,0,1.2-0.5,1.2-1.1V5.9h-2.5c-1.2,0-1.8,0.9-1.8,1.9v5h-5.7V0.6h28.2v12.1H126.6z"/>
	<path class="st0" d="M134.1,27.8v-5.2h2.8c0.9,0,1.2-0.5,1.2-1.1V7c0-0.5-0.3-1.1-1.2-1.1h-2.8V0.6h16.3v5.2h-2.8
		c-0.9,0-1.2,0.5-1.2,1.1v14.5c0,0.5,0.3,1.1,1.2,1.1h2.8v5.2H134.1z"/>
	<path class="st0" d="M169.4,27.8v-5.2h1.3c0.9,0,1-0.9,0.6-1.3l-3.5-5.2l-3.8,3.2v2.3c0,0.5,0.3,1.1,1.2,1.1h1.7v5.2h-14.6v-5.2
		h2.5c0.9,0,1.2-0.5,1.2-1.1V7c0-0.5-0.3-1.1-1.2-1.1h-2.5V0.6h14.6v5.2h-1.7c-0.9,0-1.2,0.5-1.2,1.1v6.6l7.8-6.5
		c0.4-0.4,0.4-1.1-0.4-1.1h-2V0.6h14.9v5.2H182c-1,0-2.2,0.4-3.2,1.1l-4.5,3.7l7.3,10.6c0.4,0.6,1.4,1.1,2.2,1.1h1.4v5.2L169.4,27.8
		L169.4,27.8z"/>
	<path class="st0" d="M186.8,27.8v-5.2h2.5c0.9,0,1.2-0.5,1.2-1.1V7c0-0.5-0.3-1.1-1.2-1.1h-2.5V0.6h27.6v10.5h-5.2l-0.2-3.3
		c-0.1-1-0.4-1.9-2-1.9h-8.3v5.9h2.2c0.7,0,1-0.5,1.1-1.1l0.2-1.8h3.9v9.7h-3.9l-0.2-1.6c-0.1-0.5-0.3-1-1-1h-2.3V21
		c0,1.1,0.6,1.6,1.6,1.6h5.7c2.2,0,3.2-1.1,3.3-3l0.2-3.4h5.6v11.6L186.8,27.8L186.8,27.8z"/>
	<path class="st0" d="M247,5.9c-0.9,0-1.2,0.5-1.2,1.1v20.8h-6.6l-12.5-15.6v9.3c0,0.5,0.3,1.1,1.2,1.1h2.5v5.2h-13.6v-5.2h2.5
		c0.9,0,1.2-0.5,1.2-1.1V7c0-0.5-0.3-1.1-1.2-1.1h-2.5V0.6h11.4l11.3,14.4V7c0-0.5-0.3-1.1-1.2-1.1h-2.5V0.6h13.6v5.2L247,5.9
		L247,5.9z"/>
</g>
</svg>
