<?xml version="1.0" encoding="utf-8"?>
<!-- Generator: Adobe Illustrator 21.1.0, SVG Export Plug-In . SVG Version: 6.00 Build 0)  -->
<svg version="1.1" id="Layer_5" xmlns="http://www.w3.org/2000/svg" xmlns:xlink="http://www.w3.org/1999/xlink" x="0px" y="0px"
	 width="250px" height="87.6px" viewBox="0 0 250 87.6" style="enable-background:new 0 0 250 87.6;" xml:space="preserve">
<style type="text/css">
	.st0{fill:#FFFFFF;}
</style>
<g>
	<rect class="st0" width="8.8" height="65.7"/>
	<rect x="12.3" class="st0" width="2.3" height="33.1"/>
	<rect x="17.2" class="st0" width="2.3" height="33.1"/>
	<path class="st0" d="M123.3,0l-12.6,59.4H95.9V0h-4.9v0h-7.1v0h-2.3v0h-7.2v6.3h7.2v53.1h-5.3V33.1h-6.7V29h-8.1V8.9h8.1V0h-8.1v0
		h-8.8v0H41.2v0h-8.4v65.7h11.4V37.8h8.5v27.9h8.8V37.8h7.9v27.9h5h1.9h5.3h2.3H87h3.9h4.5h0.5h23.3v-6.3h-2.9L129,0H123.3z
		 M44.2,29V8.9h8.5V29H44.2z M83.9,59.4V6.3H87v53.1H83.9z"/>
	<polygon class="st0" points="157.9,65.7 144.5,0 134.4,0 134.4,0 131,0 131,65.7 139.8,65.7 139.8,26.2 148,65.7 	"/>
</g>
<path class="st0" d="M58.7,83.2c0,1.4-0.9,2-2.1,2h-1.3v-8.7h1.3c1.2,0,2,0.7,2,2V83.2z M61.4,82.7v-3.6c0-2.8-1.5-4.7-4.8-4.7h-4
	v13h4C59.7,87.4,61.4,85.5,61.4,82.7z"/>
<path class="st0" d="M69.6,87.4h-6.2v-13h6.1v2.2h-3.4v3h3.3v2.2h-3.3v3.5h3.5V87.4z"/>
<path class="st0" d="M73.5,87.4V76.6h-2.7v-2.2h8.1l0,2.2h-2.7v10.9H73.5z"/>
<path class="st0" d="M91.5,83.2c0,1.4-0.9,2-2.1,2h-1.3v-8.7h1.3c1.2,0,2,0.7,2,2V83.2z M94.2,82.7v-3.6c0-2.8-1.5-4.7-4.8-4.7h-4
	v13h4C92.5,87.4,94.2,85.5,94.2,82.7z"/>
<path class="st0" d="M98.8,82.4l0.9-5.3l1,5.3H98.8z M101.1,84.5l0.5,2.9h2.8l-2.8-13h-3.7l-2.8,13H98l0.5-2.9H101.1z"/>
<path class="st0" d="M105.8,87.4v-13h3.3l3.1,8.4v-8.4h2.4v13h-3.3l-3.1-8.4v8.4H105.8z"/>
<path class="st0" d="M120.4,87.6c-2.6,0-4-1.1-4-3.7v-0.7h2.7v0.6c0,1,0.2,1.7,1.3,1.7c0.6,0,1.3-0.3,1.3-1.4c0-2.8-5.2-1.8-5.2-6
	c0-2,1.4-3.8,3.9-3.8c2.6,0,4,1.3,4,3.8v0.9h-2.7v-0.8c0-1.2-0.5-1.7-1.3-1.7c-0.9,0-1.3,0.5-1.3,1.4c0,2.6,5.2,1.6,5.2,5.9
	C124.3,86.7,122.3,87.6,120.4,87.6z"/>
<path class="st0" d="M128.8,87.4h-2.7v-13h2.7v5.9l2.7-5.9h3.1l-3.2,6.3l3.4,6.8h-3.1l-3-6.1V87.4z"/>
<path class="st0" d="M142.3,87.4h-6.2v-13h6.1v2.2h-3.4v3h3.3v2.2h-3.3v3.5h3.5V87.4z"/>
<path class="st0" d="M152,76.6v3h3.3v2.2H152v5.7h-2.7v-13h6.9v2.2H152z"/>
<path class="st0" d="M160.3,74.4v13h-2.7v-13H160.3z"/>
<path class="st0" d="M162.3,87.4v-13h2.7v10.9h3.9v2.2H162.3z"/>
<path class="st0" d="M179.8,87.4V77.2l-2.3,10.3h-2.7l-2.1-10.4v10.4h-2.4v-13h4.3l1.7,9.3l1.7-9.3h4.3v13H179.8z"/>
<path class="st0" d="M186.9,74.4v13h-2.7v-13H186.9z"/>
<path class="st0" d="M188.9,87.4v-13h3.3l3.1,8.4v-8.4h2.4v13h-3.3l-3.1-8.4v8.4H188.9z"/>
<path class="st0" d="M203.5,87.6c-2.6,0-4-1.1-4-3.7v-0.7h2.7v0.6c0,1,0.2,1.7,1.3,1.7c0.6,0,1.3-0.3,1.3-1.4c0-2.8-5.2-1.8-5.2-6
	c0-2,1.4-3.8,3.9-3.8c2.6,0,4,1.3,4,3.8v0.9h-2.7v-0.8c0-1.2-0.5-1.7-1.3-1.7c-0.9,0-1.3,0.5-1.3,1.4c0,2.6,5.2,1.6,5.2,5.9
	C207.4,86.7,205.3,87.6,203.5,87.6z"/>
<path class="st0" d="M211.2,87.4V76.6h-2.7v-2.2h8.1l0,2.2h-2.7v10.9H211.2z"/>
<path class="st0" d="M220.7,74.4v13H218v-13H220.7z"/>
<path class="st0" d="M224.8,87.4V76.6h-2.7v-2.2h8.1l0,2.2h-2.7v10.9H224.8z"/>
<path class="st0" d="M236,87.6c-2.6,0-4.5-1.4-4.5-4.5v-8.6h2.8v9c0,1.6,0.5,2,1.6,2c1.1,0,1.7-0.5,1.7-2v-9h2.8V83
	C240.5,86.2,238.6,87.6,236,87.6z"/>
<path class="st0" d="M244.6,87.4V76.6h-2.7v-2.2h8.1l0,2.2h-2.7v10.9H244.6z"/>
</svg>
