<?xml version="1.0" encoding="utf-8"?>
<!-- Generator: Adobe Illustrator 21.1.0, SVG Export Plug-In . SVG Version: 6.00 Build 0)  -->
<svg version="1.1" id="Layer_1" xmlns="http://www.w3.org/2000/svg" xmlns:xlink="http://www.w3.org/1999/xlink" x="0px" y="0px"
	 width="250px" height="84px" viewBox="0 0 250 84" style="enable-background:new 0 0 250 84;" xml:space="preserve">
<style type="text/css">
	.st0{fill:#FFFFFF;}
	.st1{fill:none;}
</style>
<path class="st0" d="M157.7,20.1c-0.5,0.2-1,0.4-1.4,0.6s-1,0.4-1.6,0.6s-1.2,0.3-1.9,0.5c-0.7,0.1-1.4,0.2-2.2,0.2
	c-1.5,0-2.9-0.2-4.2-0.6c-1.2-0.4-2.3-1.1-3.2-2s-1.6-2.1-2.1-3.5s-0.8-3-0.8-4.9c0-1.8,0.2-3.3,0.7-4.7s1.2-2.5,2.1-3.5
	c0.9-0.9,2-1.6,3.2-2.1c1.3-0.5,2.7-0.7,4.2-0.7c1.1,0,2.3,0.1,3.4,0.4c1.1,0.3,2.4,0.8,3.7,1.5v3.4h-0.2c-1.2-1-2.3-1.7-3.4-2.1
	c-1.1-0.4-2.4-0.7-3.7-0.7c-1.1,0-2,0.2-2.9,0.5s-1.6,0.9-2.3,1.6c-0.6,0.7-1.1,1.6-1.5,2.7s-0.5,2.4-0.5,3.8c0,1.5,0.2,2.8,0.6,3.9
	c0.4,1.1,0.9,2,1.5,2.6c0.7,0.7,1.4,1.2,2.3,1.6c0.9,0.3,1.8,0.5,2.8,0.5c1.3,0,2.6-0.2,3.8-0.7s2.3-1.2,3.3-2.1h0.2L157.7,20.1"/>
<path class="st0" d="M170.2,8.6H170c-0.4-0.1-0.8-0.2-1.1-0.2c-0.4,0-0.8-0.1-1.3-0.1c-0.8,0-1.6,0.2-2.4,0.5
	c-0.8,0.4-1.5,0.8-2.2,1.4v11.3h-2.6v-16h2.6v2.4c1.1-0.9,2-1.5,2.8-1.8c0.8-0.4,1.6-0.5,2.5-0.5c0.5,0,0.8,0,1,0s0.5,0.1,0.9,0.1
	V8.6"/>
<path class="st0" d="M182.7,11.9c0-1.4-0.4-2.5-1-3.3c-0.7-0.8-1.7-1.2-3.2-1.2c-1.4,0-2.5,0.4-3.4,1.3c-0.8,0.8-1.3,1.9-1.4,3.2
	H182.7 M185.3,14h-11.6c0,1,0.1,1.8,0.4,2.6c0.3,0.7,0.7,1.3,1.2,1.8s1.1,0.8,1.7,1c0.7,0.2,1.4,0.3,2.2,0.3c1.1,0,2.2-0.2,3.2-0.6
	c1.1-0.4,1.9-0.9,2.3-1.3h0.1v2.9c-0.9,0.4-1.8,0.7-2.7,1s-1.9,0.4-2.9,0.4c-2.6,0-4.7-0.7-6.1-2.2c-1.5-1.4-2.2-3.5-2.2-6.1
	s0.7-4.7,2.1-6.2c1.4-1.5,3.3-2.3,5.5-2.3c2.1,0,3.8,0.6,4.9,1.9c1.2,1.3,1.7,3,1.7,5.4V14H185.3z"/>
<path class="st0" d="M197.9,17.7v-4.4c-0.8,0-1.8,0.1-2.9,0.2c-1.1,0.1-2,0.2-2.6,0.4c-0.8,0.2-1.4,0.6-1.8,1
	c-0.5,0.5-0.7,1.1-0.7,1.9c0,0.9,0.3,1.6,0.8,2.1s1.4,0.7,2.5,0.7c0.9,0,1.8-0.2,2.5-0.5C196.5,18.7,197.2,18.3,197.9,17.7
	 M200.5,21.7h-2.6V20c-0.2,0.2-0.6,0.4-1,0.7c-0.4,0.3-0.8,0.5-1.2,0.7s-0.9,0.4-1.5,0.5s-1.2,0.2-2,0.2c-1.4,0-2.6-0.5-3.6-1.4
	c-1-1-1.5-2.2-1.5-3.6c0-1.2,0.3-2.2,0.8-2.9s1.2-1.3,2.2-1.8c1-0.4,2.1-0.7,3.5-0.9c1.3-0.2,2.8-0.3,4.3-0.3v-0.4
	c0-0.6-0.1-1.1-0.3-1.5s-0.5-0.7-0.9-0.9S195.9,8,195.3,8c-0.5-0.1-1.1-0.1-1.7-0.1c-0.7,0-1.5,0.1-2.3,0.3
	c-0.9,0.2-1.7,0.5-2.6,0.8h-0.1V6.1c0.5-0.1,1.3-0.3,2.2-0.5c1-0.2,1.9-0.3,2.9-0.3c1.1,0,2.1,0.1,2.9,0.3c0.8,0.2,1.5,0.5,2.1,0.9
	s1,1,1.4,1.7c0.3,0.7,0.5,1.6,0.5,2.6L200.5,21.7L200.5,21.7z"/>
<path class="st0" d="M212.5,21.5c-0.5,0.1-1,0.2-1.6,0.3c-0.6,0.1-1.1,0.1-1.6,0.1c-1.6,0-2.8-0.4-3.7-1.3c-0.8-0.9-1.3-2.3-1.3-4.2
	V8h-1.8V5.7h1.8V1.1h2.7v4.6h5.5V8H207v7.3c0,0.8,0,1.5,0.1,2c0,0.5,0.2,0.9,0.4,1.3s0.5,0.7,0.9,0.8c0.4,0.2,0.9,0.3,1.7,0.3
	c0.4,0,0.9-0.1,1.4-0.2s0.8-0.2,1-0.3h0.1L212.5,21.5"/>
<path class="st0" d="M214.7,5.7h2.6v16h-2.6V5.7z M214.5,0.2h3V3h-3V0.2z"/>
<polyline class="st0" points="235,5.7 228.7,21.7 226,21.7 219.7,5.7 222.6,5.7 227.4,18.4 232.3,5.7 235,5.7 "/>
<path class="st0" d="M247.4,11.9c0-1.4-0.4-2.5-1.1-3.3c-0.7-0.8-1.7-1.2-3.1-1.2c-1.4,0-2.5,0.4-3.4,1.3c-0.8,0.8-1.3,1.9-1.4,3.2
	H247.4 M250,14h-11.6c0,1,0.1,1.8,0.4,2.6c0.3,0.7,0.7,1.3,1.2,1.8s1.1,0.8,1.7,1c0.7,0.2,1.4,0.3,2.2,0.3c1.1,0,2.2-0.2,3.2-0.6
	c1.1-0.4,1.9-0.9,2.3-1.3h0.1v2.9c-0.9,0.4-1.8,0.7-2.7,1s-1.9,0.4-2.9,0.4c-2.6,0-4.6-0.7-6.1-2.2c-1.5-1.4-2.2-3.5-2.2-6.1
	s0.7-4.7,2.1-6.2c1.4-1.5,3.2-2.3,5.5-2.3c2.1,0,3.8,0.6,4.9,1.9c1.2,1.3,1.7,3,1.7,5.4V14H250z"/>
<polyline class="st0" points="155.3,50.4 141.5,50.4 141.5,29.1 155.3,29.1 155.3,31.6 144.3,31.6 144.3,37.5 155.3,37.5 155.3,40 
	144.3,40 144.3,47.9 155.3,47.9 155.3,50.4 "/>
<path class="st0" d="M171.3,50.4h-2.7v-1.8c-0.9,0.7-1.7,1.3-2.6,1.6c-0.8,0.4-1.7,0.6-2.7,0.6c-1.7,0-2.9-0.5-3.9-1.5
	c-0.9-1-1.4-2.5-1.4-4.5V34.4h2.7v9.1c0,0.8,0,1.5,0.1,2.1s0.2,1.1,0.5,1.5c0.2,0.4,0.6,0.7,1,0.9s1,0.3,1.8,0.3
	c0.7,0,1.4-0.2,2.2-0.5c0.8-0.4,1.6-0.8,2.3-1.4v-12h2.7L171.3,50.4"/>
<path class="st0" d="M185,37.4h-0.1c-0.4-0.1-0.8-0.2-1.1-0.2c-0.4,0-0.8-0.1-1.3-0.1c-0.8,0-1.6,0.2-2.4,0.6
	c-0.8,0.4-1.5,0.8-2.2,1.4v11.3h-2.7v-16h2.7v2.4c1.1-0.9,2-1.5,2.8-1.8c0.8-0.4,1.6-0.5,2.5-0.5c0.5,0,0.8,0,1,0s0.5,0.1,0.9,0.1
	L185,37.4"/>
<path class="st0" d="M197.6,42.4c0-2.1-0.4-3.6-1.2-4.6s-1.9-1.5-3.3-1.5c-1.4,0-2.5,0.5-3.3,1.5s-1.2,2.5-1.2,4.6
	c0,2,0.4,3.5,1.2,4.6c0.8,1,1.9,1.6,3.3,1.6c1.4,0,2.5-0.5,3.3-1.5C197.2,46,197.6,44.5,197.6,42.4 M200.4,42.4c0,2.6-0.7,4.7-2,6.2
	s-3.1,2.3-5.3,2.3s-4-0.8-5.3-2.3s-2-3.6-2-6.2c0-2.6,0.7-4.7,2-6.2s3.1-2.3,5.3-2.3s4,0.8,5.3,2.3
	C199.7,37.8,200.4,39.8,200.4,42.4z"/>
<path class="st0" d="M214.5,42.3c0-1.9-0.3-3.4-1-4.3c-0.6-1-1.6-1.4-3-1.4c-0.8,0-1.5,0.2-2.3,0.5s-1.5,0.8-2.2,1.3v9
	c0.8,0.3,1.4,0.6,1.9,0.7c0.5,0.1,1.2,0.2,1.8,0.2c1.5,0,2.6-0.5,3.5-1.5C214.1,45.8,214.5,44.3,214.5,42.3 M217.2,42.2
	c0,1.3-0.2,2.5-0.5,3.6c-0.4,1.1-0.9,2-1.5,2.7s-1.4,1.3-2.2,1.6c-0.8,0.4-1.7,0.6-2.7,0.6c-0.8,0-1.6-0.1-2.2-0.3
	c-0.7-0.2-1.3-0.5-2-0.8v6.7h-2.6V34.4h2.6v1.7c0.7-0.6,1.5-1.1,2.4-1.5s1.8-0.6,2.8-0.6c1.9,0,3.4,0.7,4.4,2.2
	C216.7,37.6,217.2,39.7,217.2,42.2z"/>
<path class="st0" d="M231,40.7c0-1.4-0.4-2.5-1-3.3c-0.7-0.8-1.7-1.2-3.1-1.2c-1.4,0-2.5,0.4-3.4,1.3c-0.8,0.9-1.3,1.9-1.4,3.2H231
	 M233.6,42.7H222c0,1,0.1,1.8,0.4,2.6c0.3,0.7,0.7,1.3,1.2,1.8s1.1,0.8,1.7,1c0.7,0.2,1.4,0.3,2.2,0.3c1.1,0,2.1-0.2,3.2-0.7
	c1.1-0.4,1.9-0.9,2.3-1.3h0.1v2.9c-0.9,0.4-1.8,0.7-2.7,1s-1.9,0.4-2.9,0.4c-2.6,0-4.6-0.7-6.1-2.2c-1.5-1.4-2.2-3.5-2.2-6.1
	s0.7-4.7,2.1-6.2c1.4-1.5,3.3-2.3,5.5-2.3c2.1,0,3.8,0.6,4.9,1.9c1.2,1.3,1.7,3,1.7,5.4v1.5H233.6z"/>
<path class="st0" d="M0,0.4v83.5h123.9V0.4H0z M82.3,27.4l1.9-0.1l0.6-1.7l0.4-1.1l0.4,1.1l0.6,1.7l1.9,0.1h1.3l-1,0.7l-1.5,1.1
	l0.5,1.7l0.4,1.2l-1-0.7l-1.6-1l-1.6,1l-1,0.7l0.4-1.2l0.5-1.7L82,28.1l-1-0.7H82.3z M32.3,45.5l0.3-1.1l0.6-1.7l-1.5-1.1l-1.1-0.8
	h1.3h1.9l0.7-1.7l0.4-1.1l0.4,1.1l0.6,1.7h1.9h1.3L38,41.6l-1.5,1.1l0.6,1.7l0.3,1.1l-1-0.6l-1.5-1.1l-1.6,1.1L32.3,45.5z
	 M41.6,54.9L40.1,56l0.6,1.7l0.4,1.2L40,58.2l-1.5-1l-1.6,1l-1,0.7l0.4-1.2l0.5-1.7l-1.5-1.1l-1.1-0.7l1.3-0.1h1.9l0.7-1.7l0.4-1.1
	l0.4,1.1l0.6,1.7h1.9l1.3,0.1L41.6,54.9z M41.7,28l-1.5,1.1l0.9,2.9l-1-0.7l-1.6-1l-1.6,1l-1,0.7l0.4-1.2l0.6-1.7L35.4,28l-1.1-0.7
	h1.3l1.9-0.1l0.6-1.7l0.4-1.1l0.4,1.1l0.6,1.7l2,0.1h1.3L41.7,28z M51.4,64.7l-1.5,1.1l0.5,1.7l0.4,1.2l-1-0.7l-1.6-1.1L46.6,68
	l-1,0.7l0.4-1.2l0.6-1.7l-1.5-1.1L44,63.9h1.3h1.9l0.6-1.7l0.4-1.1l0.4,1.1l0.7,1.7h1.9h1.3L51.4,64.7z M51.5,18.4l-1.5,1l0.6,1.7
	l0.3,1.2l-1-0.7l-1.5-1l-1.6,1l-1,0.7l0.3-1.2l0.6-1.7l-1.5-1l-1.1-0.8h1.3l1.9-0.1l0.7-1.7l0.4-1.1l0.3,1.1l0.7,1.7l1.9,0.1h1.3
	L51.5,18.4z M65,68.3l-1.5,1.1l0.6,1.7l0.3,1.2l-1-0.7l-1.6-1l-2.5,1.7l0.3-1.2l0.6-1.7l-1.5-1.1l-1.1-0.7l1.3-0.1h1.9l0.6-1.7
	l0.4-1.1l0.4,1.1l0.7,1.7h1.9l1.3,0.1L65,68.3z M65,14.8l-1.5,1l0.6,1.8l0.3,1.1l-1-0.7l-1.6-1l-1.5,1l-1,0.7l0.3-1.1l0.6-1.8
	l-1.5-1L57.6,14h1.3l1.9-0.1l0.6-1.7l0.4-1.1l0.4,1.1l0.7,1.7l1.9,0.1h1.3L65,14.8z M78.5,64.8L77,65.9l0.6,1.7l0.3,1.1l-1-0.6
	L75.3,67l-1.5,1.1l-1,0.6l0.3-1.1l0.6-1.7l-1.5-1.1L71.1,64h1.3l1.9-0.1l0.6-1.7l0.4-1l0.4,1l0.7,1.7l1.9,0.1h1.3L78.5,64.8z
	 M78.6,18.4l-1.5,1l0.6,1.8l0.4,1.1L77,21.7l-1.5-1.1l-1.6,1.1l-1,0.6l0.3-1.1l0.6-1.8l-1.5-1l-1.1-0.8h1.3l1.9-0.1l1.1-2.8l0.4,1.1
	l0.6,1.7l1.9,0.1h1.3L78.6,18.4z M88.3,55l-1.5,1.1l0.6,1.7l0.3,1.2l-1-0.7l-1.5-1l-1.6,1l-1,0.7l0.3-1.2l0.6-1.7L82,55l-1.1-0.7
	h1.3l1.9-0.1l1.1-2.8l0.4,1.1l0.6,1.7l1.9,0.1h1.3L88.3,55z M92,41.6l-1.5,1.1l0.5,1.7l0.4,1.2l-1-0.7l-1.6-1.1l-1.6,1.1l-1,0.7
	l0.4-1.2l0.5-1.7l-1.5-1.1l-1-0.8h1.2h2l0.6-1.7l0.4-1.1l0.4,1.1l0.6,1.7h1.9H93L92,41.6z"/>
<polyline class="st0" points="159.7,65.1 159.4,65.4 159.7,65.4 159.7,65.1 "/>
<polyline class="st0" points="145.6,69.1 145.6,69.1 141.7,69.1 141.7,65.4 142.1,65.4 141.7,65 141.7,71.8 141.7,69.1 145.6,69.1 
	"/>
<polyline class="st0" points="141.7,80.3 141.7,80.3 141.7,76.6 141.7,84 145.3,84 145.3,84 141.7,84 141.7,80.3 "/>
<polyline class="st0" points="159.7,69.1 159.7,69.1 155.9,69.1 155.9,69.1 159.7,69.1 "/>
<polyline class="st0" points="156,84 159.3,84 156,84 156,84 "/>
<polyline class="st0" points="163.3,84 169.8,84 163.3,84 163.3,84 "/>
<polygon class="st0" points="163.2,69.1 174,69.1 174,69.1 "/>
<polygon class="st0" points="194.9,84 198.6,84 198.6,84 "/>
<polygon class="st0" points="194.9,69.1 198.6,69.1 198.6,69.1 "/>
<polyline class="st0" points="207.5,65 207.3,65.4 207.7,65.4 207.5,65 "/>
<polyline class="st0" points="215.8,84 215.6,83.6 215.8,84 215.8,84 "/>
<polygon class="st0" points="205.7,69.1 209.3,69.1 209.3,69.1 "/>
<polyline class="st0" points="211.7,84 214.2,84 211.7,84 211.7,84 "/>
<polyline class="st0" points="199.4,84 203.4,84 203.4,84 199.4,84 199.4,84 "/>
<path class="st0" d="M177.6,84h5.4h0.1H177.6L177.6,84"/>
<polyline class="st0" points="190.4,69.1 190.3,69.1 177.6,69.1 177.6,69.1 190.4,69.1 "/>
<polyline class="st0" points="215.8,84 214.2,84 215.8,84 215.8,84 "/>
<polyline class="st0" points="214.2,80.3 215.6,83.6 214.2,80.3 214.2,80.3 "/>
<polyline class="st0" points="141.7,80.3 141.7,80.3 141.7,84 145.3,84 145.3,80.3 141.7,80.3 "/>
<polyline class="st0" points="150.8,80.3 150.8,80.3 150.8,80.3 150.8,80.3 "/>
<rect x="156" y="80.3" class="st0" width="3.7" height="3.7"/>
<polyline class="st0" points="174.1,80.3 163.3,80.3 163.3,84 174.1,84 174.1,80.3 "/>
<rect x="194.9" y="80.3" class="st0" width="3.7" height="3.7"/>
<polyline class="st0" points="215.6,83.6 214.2,80.3 201,80.3 199.4,84 203.4,84 204.5,81.1 210.6,81.2 211.7,84 215.8,84 
	215.6,83.6 "/>
<path class="st0" d="M190.4,80.3h-7.3l0,0h-5.5V84h5.5C186.1,84,188.8,82.5,190.4,80.3"/>
<path class="st0" d="M181.3,80.3h1.8l0,0H181.3"/>
<polyline class="st0" points="212.6,76.6 214.2,80.3 214.2,80.3 212.6,76.6 212.6,76.6 "/>
<polyline class="st0" points="147.3,76.6 150.8,80.3 150.8,80.3 154,76.6 147.3,76.6 "/>
<polyline class="st0" points="145.3,76.6 141.7,76.6 141.7,80.3 145.3,80.3 145.3,76.6 "/>
<polyline class="st0" points="156,76.6 156,80.3 159.7,80.3 159.7,76.6 156,76.6 "/>
<rect x="163.3" y="76.6" class="st0" width="3.5" height="3.7"/>
<rect x="194.9" y="76.6" class="st0" width="3.7" height="3.7"/>
<polyline class="st0" points="209.1,77.4 206,77.4 206.3,76.6 202.6,76.6 201,80.3 214.2,80.3 212.6,76.6 208.8,76.6 209.1,77.4 "/>
<path class="st0" d="M188.2,76.6c-0.7,2.1-2.7,3.7-5,3.7h7.2c0.8-1.1,1.4-2.3,1.6-3.7H188.2"/>
<rect x="177.6" y="76.6" class="st0" width="3.7" height="3.7"/>
<polyline class="st0" points="214.2,80.3 214.2,80.3 214.2,80.3 214.2,80.3 "/>
<polygon class="st0" points="156,80.3 159.7,80.3 159.7,80.3 "/>
<polygon class="st0" points="141.7,80.3 145.3,80.3 145.3,80.3 "/>
<polygon class="st0" points="150.8,80.3 150.8,80.3 150.8,80.3 "/>
<polygon class="st0" points="163.3,80.3 166.8,80.3 166.8,80.3 "/>
<polygon class="st0" points="194.9,80.3 198.6,80.3 198.6,80.3 "/>
<polyline class="st0" points="201,80.3 201,80.3 214.2,80.3 214.2,80.3 201,80.3 "/>
<path class="st0" d="M183.2,80.3C183.2,80.3,183.1,80.3,183.2,80.3h7.2l0,0H183.2"/>
<polygon class="st0" points="177.6,80.3 181.3,80.3 181.3,80.3 "/>
<path class="st0" d="M181.3,80.3L181.3,80.3h1.8h0.1H181.3"/>
<line class="st1" x1="141.7" y1="72.9" x2="141.7" y2="72.9"/>
<polyline class="st0" points="210.9,72.9 212.6,76.6 212.6,76.6 211,72.9 210.9,72.9 "/>
<polyline class="st0" points="141.7,76.6 141.7,72.9 141.7,76.6 "/>
<polyline class="st0" points="141.7,76.6 145.3,76.6 145.3,74.3 147.3,76.6 154,76.6 156,74.3 156,76.6 159.7,76.6 159.7,72.9 
	152.5,72.9 150.8,74.6 149.1,72.9 141.7,72.9 141.7,76.6 "/>
<polyline class="st0" points="166.8,76.6 174.1,76.6 174.1,72.9 163.2,72.9 163.3,76.6 166.8,76.6 166.8,76.6 "/>
<rect x="194.9" y="72.9" class="st0" width="3.7" height="3.7"/>
<polyline class="st0" points="202.6,76.6 206.3,76.6 207.5,73.3 208.8,76.6 212.6,76.6 210.9,72.9 204.1,72.9 202.6,76.6 "/>
<path class="st0" d="M192,72.9h-3.9c0.2,0.6,0.3,1.3,0.3,1.9s-0.1,1.2-0.3,1.8h3.8c0.1-0.6,0.2-1.2,0.2-1.8
	C192.3,74.1,192.2,73.5,192,72.9"/>
<polyline class="st0" points="177.6,72.9 177.6,76.6 181.3,76.6 181.3,72.9 177.6,72.9 "/>
<line class="st1" x1="212.6" y1="76.6" x2="212.6" y2="76.6"/>
<line class="st1" x1="156" y1="76.6" x2="159.7" y2="76.6"/>
<line class="st1" x1="147.3" y1="76.6" x2="154" y2="76.6"/>
<line class="st1" x1="141.7" y1="76.6" x2="145.3" y2="76.6"/>
<line class="st1" x1="163.3" y1="76.6" x2="166.8" y2="76.6"/>
<line class="st1" x1="194.9" y1="76.6" x2="198.6" y2="76.6"/>
<line class="st1" x1="208.8" y1="76.6" x2="212.6" y2="76.6"/>
<line class="st1" x1="202.6" y1="76.6" x2="206.3" y2="76.6"/>
<line class="st1" x1="188.2" y1="76.6" x2="192.1" y2="76.6"/>
<line class="st1" x1="177.6" y1="76.6" x2="181.3" y2="76.6"/>
<polyline class="st0" points="141.7,72.9 141.7,71.8 141.7,72.9 "/>
<polyline class="st0" points="211,72.9 209.3,69.1 209.3,69.1 210.9,72.9 211,72.9 "/>
<polyline class="st0" points="149.1,72.9 145.6,69.1 141.7,69.1 141.7,72.9 149.1,72.9 "/>
<polyline class="st0" points="155.9,69.1 152.5,72.9 159.7,72.9 159.7,69.1 155.9,69.1 "/>
<polyline class="st0" points="174.1,72.9 166.8,72.9 166.8,69.1 174.1,69.1 174.1,69.1 163.2,69.1 163.2,72.9 174.1,72.9 
	174.1,72.9 "/>
<rect x="194.9" y="69.1" class="st0" width="3.7" height="3.7"/>
<polyline class="st0" points="204.1,72.9 210.9,72.9 209.3,69.1 205.7,69.1 204.1,72.9 "/>
<path class="st0" d="M181.3,72.9v-3.7h1.8c2.3,0,4.3,1.6,5.1,3.7h3.9c-0.3-1.4-0.9-2.6-1.7-3.7h-12.7v3.7H181.3"/>
<polyline class="st0" points="210.9,72.9 211,72.9 210.9,72.9 210.9,72.9 "/>
<line class="st1" x1="141.7" y1="72.9" x2="141.7" y2="72.9"/>
<line class="st1" x1="141.7" y1="72.9" x2="149.1" y2="72.9"/>
<polyline class="st0" points="152.5,72.9 152.5,72.9 159.7,72.9 152.5,72.9 "/>
<line class="st1" x1="163.2" y1="72.9" x2="174.1" y2="72.9"/>
<line class="st1" x1="194.9" y1="72.9" x2="198.6" y2="72.9"/>
<polyline class="st0" points="210.9,72.9 204.1,72.9 210.9,72.9 "/>
<line class="st1" x1="177.6" y1="72.9" x2="181.3" y2="72.9"/>
<line class="st1" x1="188.2" y1="72.9" x2="192" y2="72.9"/>
<polyline class="st0" points="209.3,69.1 207.7,65.4 207.7,65.4 209.3,69.1 209.3,69.1 "/>
<polyline class="st0" points="159.7,69.1 159.7,65.4 159.4,65.4 155.9,69.1 159.7,69.1 "/>
<polyline class="st0" points="141.7,69.1 145.6,69.1 142.1,65.4 141.7,65.4 141.7,69.1 "/>
<rect x="163.2" y="65.4" class="st0" width="10.8" height="3.7"/>
<polyline class="st0" points="198.6,65.4 194.9,65.4 194.9,69.1 198.6,69.1 198.6,65.4 "/>
<polyline class="st0" points="209.3,69.1 207.7,65.4 207.3,65.4 205.7,69.1 209.3,69.1 "/>
<path class="st0" d="M183,65.4h-5.4v3.7h12.7C188.7,66.9,186,65.4,183,65.4"/>
<polyline class="st0" points="142.1,65.4 141.7,65.4 141.7,65.9 142.6,65.9 142.1,65.4 "/>
<polyline class="st0" points="159.7,65.9 159.7,65.4 159.4,65.4 158.9,65.9 159.7,65.9 "/>
<polyline class="st0" points="152.5,72.8 152,73.4 159.7,73.4 159.7,72.8 152.5,72.8 "/>
<polyline class="st0" points="149.1,72.8 141.7,72.8 141.7,73.4 149.6,73.4 149.1,72.8 "/>
<polyline class="st0" points="145.6,69.1 141.7,69.1 141.7,69.7 146.1,69.7 145.6,69.1 "/>
<polyline class="st0" points="159.7,69.1 155.9,69.1 155.4,69.7 159.7,69.7 159.7,69.1 "/>
<polyline class="st0" points="145.3,76.6 141.7,76.6 141.7,77.1 145.3,77.1 145.3,76.6 "/>
<polyline class="st0" points="154,76.6 147.3,76.6 147.8,77.1 153.6,77.1 154,76.6 "/>
<rect x="156" y="76.6" class="st0" width="3.7" height="0.5"/>
<rect x="141.7" y="80.3" class="st0" width="3.6" height="0.5"/>
<rect x="156" y="80.3" class="st0" width="3.7" height="0.5"/>
<polyline class="st0" points="159.7,67.3 157.7,67.3 157.2,67.8 159.7,67.8 159.7,67.3 "/>
<polyline class="st0" points="143.8,67.3 141.7,67.3 141.7,67.8 144.3,67.8 143.8,67.3 "/>
<polyline class="st0" points="147.4,71 141.7,71 141.7,71.5 147.9,71.5 147.4,71 "/>
<polyline class="st0" points="159.7,71 154.2,71 153.7,71.5 159.7,71.5 159.7,71 "/>
<rect x="141.7" y="74.7" class="st0" width="3.6" height="0.5"/>
<rect x="156" y="74.7" class="st0" width="3.7" height="0.5"/>
<polyline class="st0" points="155.2,75.2 155.6,74.7 145.6,74.7 146.1,75.2 155.2,75.2 "/>
<rect x="141.7" y="78.4" class="st0" width="3.6" height="0.5"/>
<polyline class="st0" points="152.5,78.4 149.1,78.4 149.6,78.9 152,78.9 152.5,78.4 "/>
<rect x="156" y="78.4" class="st0" width="3.7" height="0.5"/>
<rect x="156" y="82.1" class="st0" width="3.7" height="0.5"/>
<rect x="141.7" y="82.1" class="st0" width="3.6" height="0.5"/>
<rect x="163.3" y="65.4" class="st0" width="10.8" height="0.5"/>
<rect x="163.3" y="72.8" class="st0" width="10.8" height="0.5"/>
<polyline class="st0" points="166.8,69.1 166.8,69.1 163.3,69.1 163.3,69.7 166.8,69.7 166.8,69.1 "/>
<polyline class="st0" points="166.8,77.1 166.8,76.6 166.8,76.6 166.8,76.6 163.3,76.6 163.3,77.1 166.8,77.1 "/>
<rect x="163.3" y="80.3" class="st0" width="10.8" height="0.5"/>
<rect x="163.3" y="67.3" class="st0" width="10.8" height="0.5"/>
<rect x="163.3" y="71" class="st0" width="3.5" height="0.5"/>
<rect x="163.3" y="74.7" class="st0" width="10.8" height="0.5"/>
<rect x="163.3" y="78.4" class="st0" width="3.5" height="0.5"/>
<polyline class="st0" points="163.3,82.1 163.3,82.7 174.1,82.7 174.1,82.1 163.3,82.1 "/>
<rect x="194.9" y="65.4" class="st0" width="3.7" height="0.5"/>
<rect x="194.9" y="72.8" class="st0" width="3.7" height="0.5"/>
<rect x="194.9" y="69.1" class="st0" width="3.7" height="0.5"/>
<rect x="194.9" y="76.6" class="st0" width="3.7" height="0.5"/>
<rect x="194.9" y="80.3" class="st0" width="3.7" height="0.5"/>
<rect x="194.9" y="67.3" class="st0" width="3.7" height="0.5"/>
<rect x="194.9" y="71" class="st0" width="3.7" height="0.5"/>
<rect x="194.9" y="74.7" class="st0" width="3.7" height="0.5"/>
<rect x="194.9" y="78.4" class="st0" width="3.7" height="0.5"/>
<rect x="194.9" y="82.1" class="st0" width="3.7" height="0.5"/>
<polyline class="st0" points="207.9,65.9 207.7,65.4 207.3,65.4 207.1,65.9 207.9,65.9 "/>
<polyline class="st0" points="203.9,73.4 207.5,73.4 207.5,73.2 207.6,73.4 211.2,73.4 210.9,72.8 204.2,72.8 203.9,73.4 "/>
<polyline class="st0" points="205.5,69.7 209.6,69.7 209.3,69.1 205.7,69.1 205.5,69.7 "/>
<polyline class="st0" points="209,77.1 212.8,77.1 212.6,76.6 208.8,76.6 209,77.1 "/>
<polyline class="st0" points="202.6,76.6 202.3,77.1 206.1,77.1 206.3,76.6 202.6,76.6 "/>
<polyline class="st0" points="200.8,80.8 214.4,80.8 214.2,80.3 201,80.3 200.8,80.8 "/>
<polyline class="st0" points="206.3,67.8 208.7,67.8 208.5,67.3 206.5,67.3 206.3,67.8 "/>
<polyline class="st0" points="204.7,71.5 210.4,71.5 210.1,71 204.9,71 204.7,71.5 "/>
<polyline class="st0" points="206.8,75.2 207,74.7 203.4,74.7 203.1,75.2 206.8,75.2 "/>
<polyline class="st0" points="208.3,75.2 212,75.2 211.7,74.7 208.1,74.7 208.3,75.2 "/>
<polyline class="st0" points="201.6,78.9 213.6,78.9 213.4,78.4 201.8,78.4 201.6,78.9 "/>
<polyline class="st0" points="200.2,82.1 200,82.7 203.9,82.7 204.1,82.1 200.2,82.1 "/>
<polyline class="st0" points="211,82.1 211.2,82.7 215.2,82.7 215,82.1 211,82.1 "/>
<path class="st0" d="M183,65.4h-5.4v0.5h8.4C185.1,65.6,184.1,65.4,183,65.4"/>
<rect x="177.6" y="72.8" class="st0" width="3.7" height="0.5"/>
<path class="st0" d="M188.3,73.4h3.8c0-0.2-0.1-0.4-0.1-0.5h-3.9C188.2,73,188.3,73.2,188.3,73.4"/>
<path class="st0" d="M190.7,69.7c-0.1-0.2-0.2-0.4-0.4-0.5h-12.7v0.5H190.7"/>
<rect x="177.6" y="76.6" class="st0" width="3.7" height="0.5"/>
<path class="st0" d="M188,77.1h3.9c0-0.2,0.1-0.4,0.1-0.5h-3.8C188.2,76.7,188.1,76.9,188,77.1"/>
<path class="st0" d="M183.5,80.3c-0.1,0-0.3,0-0.4,0h-1.8l0,0h-3.7v0.5H190c0.1-0.2,0.3-0.4,0.4-0.5H183.5"/>
<path class="st0" d="M189.1,67.8c-0.2-0.2-0.4-0.4-0.7-0.5h-10.8v0.5H189.1"/>
<polyline class="st0" points="181.3,71 177.6,71 177.6,71.5 181.3,71.5 181.3,71 "/>
<path class="st0" d="M187.5,71.5h4.2c-0.1-0.2-0.1-0.4-0.2-0.5H187C187.2,71.1,187.3,71.3,187.5,71.5"/>
<rect x="177.6" y="74.7" class="st0" width="3.7" height="0.5"/>
<path class="st0" d="M188.5,74.8c0,0.2,0,0.3,0,0.5h3.7c0-0.2,0-0.3,0-0.5c0,0,0,0,0-0.1L188.5,74.8
	C188.5,74.7,188.5,74.7,188.5,74.8"/>
<path class="st0" d="M187.2,78.4c-0.2,0.2-0.3,0.4-0.5,0.5h4.6c0.1-0.2,0.2-0.4,0.3-0.5H187.2"/>
<rect x="177.6" y="78.4" class="st0" width="3.7" height="0.5"/>
<path class="st0" d="M177.6,82.1v0.5h10.2c0.3-0.2,0.5-0.4,0.8-0.5H177.6"/>
<path class="st0" d="M181.3,80.3h1.8c0.1,0,0.3,0,0.4,0H181.3L181.3,80.3"/>
<polyline class="st0" points="143.8,65.4 143.4,65.4 143.4,65.9 144.4,65.9 143.8,65.4 "/>
<polyline class="st0" points="161.5,65.9 161.5,65.4 161.1,65.4 160.6,65.9 161.5,65.9 "/>
<polyline class="st0" points="154.3,72.8 153.8,73.4 161.5,73.4 161.5,72.8 154.3,72.8 "/>
<polyline class="st0" points="150.9,72.8 143.4,72.8 143.4,73.4 151.4,73.4 150.9,72.8 "/>
<polyline class="st0" points="147.4,69.1 143.4,69.1 143.4,69.7 147.9,69.7 147.4,69.1 "/>
<polyline class="st0" points="161.5,69.1 157.7,69.1 157.2,69.7 161.5,69.7 161.5,69.1 "/>
<rect x="143.4" y="76.6" class="st0" width="3.6" height="0.5"/>
<polyline class="st0" points="155.8,76.6 149.1,76.6 149.6,77.1 155.4,77.1 155.8,76.6 "/>
<rect x="157.8" y="76.6" class="st0" width="3.7" height="0.5"/>
<rect x="143.4" y="80.3" class="st0" width="3.6" height="0.5"/>
<rect x="157.8" y="80.3" class="st0" width="3.7" height="0.5"/>
<polyline class="st0" points="161.5,67.3 159.4,67.3 158.9,67.8 161.5,67.8 161.5,67.3 "/>
<polyline class="st0" points="145.6,67.3 143.4,67.3 143.4,67.8 146.1,67.8 145.6,67.3 "/>
<polyline class="st0" points="149.1,71 143.4,71 143.4,71.5 149.6,71.5 149.1,71 "/>
<polyline class="st0" points="161.5,71 156,71 155.5,71.5 161.5,71.5 161.5,71 "/>
<rect x="143.4" y="74.7" class="st0" width="3.6" height="0.5"/>
<rect x="157.8" y="74.7" class="st0" width="3.7" height="0.5"/>
<polyline class="st0" points="157,75.2 157.4,74.7 147.4,74.7 147.9,75.2 157,75.2 "/>
<rect x="143.4" y="78.4" class="st0" width="3.6" height="0.5"/>
<polyline class="st0" points="154.2,78.4 150.9,78.4 151.4,78.9 153.8,78.9 154.2,78.4 "/>
<rect x="157.8" y="78.4" class="st0" width="3.7" height="0.5"/>
<polyline class="st0" points="157.8,82.1 157.8,82.7 161.5,82.7 161.5,82.1 157.8,82.1 "/>
<rect x="143.4" y="82.1" class="st0" width="3.6" height="0.5"/>
<rect x="165" y="65.4" class="st0" width="10.8" height="0.5"/>
<rect x="165" y="72.8" class="st0" width="10.8" height="0.5"/>
<polyline class="st0" points="168.6,69.1 168.6,69.1 165,69.1 165,69.7 168.6,69.7 168.6,69.1 "/>
<polyline class="st0" points="168.6,77.1 168.6,76.6 168.5,76.6 168.6,76.6 165,76.6 165,77.1 168.6,77.1 "/>
<rect x="165" y="80.3" class="st0" width="10.8" height="0.5"/>
<polyline class="st0" points="175.9,67.8 175.9,67.3 165,67.3 165,67.8 175.9,67.8 "/>
<polyline class="st0" points="165,71 165,71.5 168.6,71.5 168.6,71 165,71 "/>
<rect x="165" y="74.7" class="st0" width="10.8" height="0.5"/>
<rect x="165" y="78.4" class="st0" width="3.5" height="0.5"/>
<rect x="165" y="82.1" class="st0" width="10.8" height="0.5"/>
<rect x="196.7" y="65.4" class="st0" width="3.7" height="0.5"/>
<rect x="196.7" y="72.8" class="st0" width="3.7" height="0.5"/>
<rect x="196.7" y="69.1" class="st0" width="3.7" height="0.5"/>
<rect x="196.7" y="76.6" class="st0" width="3.7" height="0.5"/>
<rect x="196.7" y="80.3" class="st0" width="3.7" height="0.5"/>
<rect x="196.7" y="67.3" class="st0" width="3.7" height="0.5"/>
<rect x="196.7" y="71" class="st0" width="3.7" height="0.5"/>
<rect x="196.7" y="74.7" class="st0" width="3.7" height="0.5"/>
<rect x="196.7" y="78.4" class="st0" width="3.7" height="0.5"/>
<rect x="196.7" y="82.1" class="st0" width="3.7" height="0.5"/>
<polyline class="st0" points="209.7,65.9 209.5,65.4 209.1,65.4 208.9,65.9 209.7,65.9 "/>
<polyline class="st0" points="205.7,73.4 209.3,73.4 209.3,73.2 209.4,73.4 213,73.4 212.7,72.8 205.9,72.8 205.7,73.4 "/>
<polyline class="st0" points="207.3,69.7 211.3,69.7 211.1,69.1 207.5,69.1 207.3,69.7 "/>
<polyline class="st0" points="210.8,77.1 214.6,77.1 214.3,76.6 210.6,76.6 210.8,77.1 "/>
<polyline class="st0" points="204.4,76.6 204.1,77.1 207.9,77.1 208.1,76.6 204.4,76.6 "/>
<polyline class="st0" points="202.5,80.8 216.2,80.8 216,80.3 202.8,80.3 202.5,80.8 "/>
<polyline class="st0" points="208.1,67.8 210.5,67.8 210.3,67.3 208.3,67.3 208.1,67.8 "/>
<polyline class="st0" points="206.5,71.5 212.1,71.5 211.9,71 206.7,71 206.5,71.5 "/>
<polyline class="st0" points="208.6,75.2 208.8,74.7 205.1,74.7 204.9,75.2 208.6,75.2 "/>
<polyline class="st0" points="210.1,75.2 213.8,75.2 213.5,74.7 209.9,74.7 210.1,75.2 "/>
<polyline class="st0" points="203.3,78.9 215.4,78.9 215.1,78.4 203.6,78.4 203.3,78.9 "/>
<polyline class="st0" points="202,82.1 201.8,82.7 205.7,82.7 205.9,82.1 202,82.1 "/>
<polyline class="st0" points="212.8,82.1 213,82.7 217,82.7 216.7,82.1 212.8,82.1 "/>
<path class="st0" d="M184.8,65.4h-5.4v0.5h8.4C186.9,65.6,185.9,65.4,184.8,65.4"/>
<rect x="179.4" y="72.8" class="st0" width="3.7" height="0.5"/>
<path class="st0" d="M190.1,73.4h3.8c0-0.2-0.1-0.4-0.1-0.5h-3.9C190,73,190.1,73.2,190.1,73.4"/>
<path class="st0" d="M192.5,69.7c-0.1-0.2-0.2-0.4-0.4-0.5h-12.7v0.5H192.5"/>
<polyline class="st0" points="183.1,76.6 179.4,76.6 179.4,77.1 183.1,77.1 183.1,76.6 "/>
<path class="st0" d="M189.8,77.1h3.9c0-0.2,0.1-0.4,0.1-0.5H190C190,76.7,189.9,76.9,189.8,77.1"/>
<path class="st0" d="M185.3,80.3c-0.1,0-0.3,0-0.4,0h-1.8l0,0h-3.7v0.5h12.4c0.2-0.2,0.3-0.4,0.4-0.5H185.3"/>
<path class="st0" d="M190.9,67.8c-0.2-0.2-0.4-0.4-0.6-0.5h-10.9v0.5H190.9"/>
<rect x="179.4" y="71" class="st0" width="3.7" height="0.5"/>
<path class="st0" d="M189.1,71.5h4.3c-0.1-0.2-0.1-0.4-0.2-0.5h-4.6C188.8,71.1,189,71.3,189.1,71.5"/>
<rect x="179.4" y="74.7" class="st0" width="3.7" height="0.5"/>
<path class="st0" d="M190.3,74.8c0,0.2,0,0.3,0,0.5h3.7c0-0.2,0-0.3,0-0.5c0,0,0,0,0-0.1L190.3,74.8
	C190.3,74.7,190.3,74.7,190.3,74.8"/>
<path class="st0" d="M189,78.4c-0.2,0.2-0.3,0.4-0.5,0.5h4.6c0.1-0.2,0.2-0.4,0.3-0.5H189"/>
<rect x="179.4" y="78.4" class="st0" width="3.7" height="0.5"/>
<path class="st0" d="M179.4,82.1v0.5h10.2c0.3-0.2,0.5-0.4,0.8-0.5H179.4"/>
<path class="st0" d="M183.1,80.3h1.8c0.1,0,0.3,0,0.4,0H183.1L183.1,80.3"/>
</svg>
