<?xml version="1.0" encoding="utf-8"?>
<!-- Generator: Adobe Illustrator 21.1.0, SVG Export Plug-In . SVG Version: 6.00 Build 0)  -->
<svg version="1.1" id="Layer_1" xmlns="http://www.w3.org/2000/svg" xmlns:xlink="http://www.w3.org/1999/xlink" x="0px" y="0px"
	 width="250px" height="113.3px" viewBox="0 0 250 113.3" style="enable-background:new 0 0 250 113.3;" xml:space="preserve">
<style type="text/css">
	.st0{fill:#FFFFFF;}
</style>
<g>
	<g>
		<path class="st0" d="M8.1,103.7l6.9,8.3h-4.9l-6.2-7.4v7.4H0V96.3h3.9v7.1h0l5-7.1h4.3L8.1,103.7z"/>
		<path class="st0" d="M19.6,108.2c-0.1-0.4-0.1-0.9-0.1-1.5c0-2.4,1-3.5,2.4-3.5c0.6,0,1.1,0.2,1.5,0.5L19.6,108.2z M18.9,111.6
			c0.7,0.4,1.8,0.7,3.1,0.7c2.4,0,6-1.3,6-5.5c0-1.8-0.6-3-1.5-3.9l1.4-1.7l-1.2-1.2l-1.6,1.9c-0.9-0.5-2.1-0.7-3-0.7
			c-3.1,0-6,1.9-6,5.5c0,1.8,0.7,3.1,1.6,3.9l-1.4,1.6l1.2,1L18.9,111.6z M24.2,105.4c0.1,0.4,0.1,0.9,0.1,1.3
			c0,2.3-0.8,3.6-2.4,3.6c-0.6,0-1.2-0.2-1.5-0.5L24.2,105.4z"/>
		<path class="st0" d="M33.7,104.2c0.8-0.6,1.3-0.7,1.9-0.7c1.4,0,2.6,0.9,2.6,3.2c0,2.1-1,3.4-2.6,3.4c-0.7,0-1.3-0.3-2-0.9V104.2z
			 M33.7,96.3h-3.3v15.7h3.3v-0.8c0.9,0.7,1.9,1,3,1c2.9,0,5-2.3,5-5.6c0-3.3-2.1-5.5-5.2-5.5c-1,0-1.7,0.2-2.7,0.8V96.3z"/>
		<path class="st0" d="M47,105.5c0.1-1.5,1-2.3,2.3-2.3c1.3,0,2.2,0.9,2.3,2.3H47z M54.4,108.8c-1.6,1.1-2.6,1.5-3.9,1.5
			c-2.1,0-3.4-1.1-3.5-3h7.6c0.2-3.9-2.4-6.1-5.5-6.1c-3.3,0-5.6,2.3-5.6,5.6c0,3.3,2.4,5.5,6.2,5.5c0.8,0,2.8,0,4.7-1.4V108.8z"/>
		<path class="st0" d="M60.3,103c1.1-1.2,2.1-1.7,3.5-1.7c1.7,0,3.9,0.9,3.9,4.1v6.8h-3.3v-6.5c0-1.5-0.7-2.1-1.7-2.1
			c-0.8,0-1.5,0.4-2.3,1.8v6.8H57v-10.6h3.3V103z"/>
		<path class="st0" d="M74.1,103L74.1,103c1-1.2,2.1-1.8,3.4-1.8c1.9,0,3.9,1.2,3.9,4.1v6.8H78V106c0-1.6-0.7-2.3-1.7-2.3
			c-0.8,0-1.5,0.5-2.2,1.6v6.8h-3.3V96.3h3.3V103z"/>
		<path class="st0" d="M90,109.5c-0.6,0.5-1.2,0.8-1.8,0.8c-0.6,0-1.1-0.5-1.1-1.1c0-1.1,0.9-1.5,2.9-2.2V109.5z M95.2,109.4
			c-0.8,0.6-1,0.6-1.3,0.6c-0.3,0-0.6-0.2-0.6-0.7v-4.8c0-2.3-1.8-3.2-4.5-3.2c-1.7,0-3.2,0.4-4.6,1.3v2.7c1.1-1.1,2.6-1.8,3.9-1.8
			c1.5,0,1.9,0.8,1.8,1.8c-4.4,1.4-6.3,1.9-6.3,4.4c0,1.3,1.3,2.6,3,2.6c1.2,0,2.2-0.3,3.5-1.2c0.2,0.9,0.8,1.2,1.9,1.2
			c0.9,0,2.2-0.4,3.1-1V109.4z"/>
		<path class="st0" d="M94.7,101.4h3.6l2.3,5.9l2.3-5.9h3.5l-4.9,10.8h-1.9L94.7,101.4z"/>
		<path class="st0" d="M111.3,103c1.1-1.2,2.1-1.7,3.5-1.7c1.7,0,3.9,0.9,3.9,4.1v6.8h-3.3v-6.5c0-1.5-0.7-2.1-1.7-2.1
			c-0.8,0-1.5,0.4-2.3,1.8v6.8H108v-10.6h3.3V103z"/>
		<path class="st0" d="M129,104.4c-1.5-0.9-2.9-1.2-3.5-1.2c-0.4,0-1.2,0.1-1.2,0.8c0,1.2,5.3,1.2,5.3,4.8c0,2.2-1.6,3.5-4.3,3.5
			c-1.7,0-3.3-0.5-3.8-0.8v-2.4c1.1,0.5,2.2,0.9,3.4,0.9c1,0,1.6-0.3,1.6-0.8c0-1.5-5.3-1.3-5.3-4.7c0-2,1.8-3.3,4.4-3.3
			c1.3,0,2.3,0.2,3.4,0.8V104.4z"/>
		<path class="st0" d="M146.8,103.7l6.9,8.3h-4.9l-6.2-7.4v7.4h-3.9V96.3h3.9v7.1h0l5-7.1h4.3L146.8,103.7z"/>
		<path class="st0" d="M161.7,106.7c0,2.3-0.8,3.6-2.4,3.6c-1.3,0-2.4-0.8-2.4-3.5c0-2.4,1-3.5,2.4-3.5
			C161,103.2,161.7,104.6,161.7,106.7z M165.2,106.8c0-4.1-3.4-5.5-6-5.5c-3.1,0-6,1.9-6,5.5c0,3.3,2.5,5.5,6,5.5
			C161.6,112.3,165.2,111,165.2,106.8z"/>
		<path class="st0" d="M171.1,102.8c0.6-0.5,1.2-0.9,1.8-1.2c0.6-0.3,1.2-0.4,1.9-0.4c1.8,0,3.1,0.7,3.8,2.3
			c1.4-1.6,2.6-2.3,4.2-2.3c2.4,0,4.1,1.6,4.1,4v6.8h-3.3v-6.2c0-1.5-0.7-2.4-2-2.4c-1,0-1.9,0.6-2.6,1.8v6.8h-3.3v-6.3
			c0-1.7-1-2.3-2-2.3c-0.9,0-1.8,0.5-2.6,1.5v7.1h-3.3v-10.6h3.3V102.8z"/>
		<path class="st0" d="M193.4,102.8c0.6-0.5,1.2-0.9,1.8-1.2c0.6-0.3,1.2-0.4,1.9-0.4c1.8,0,3.1,0.7,3.8,2.3
			c1.4-1.6,2.6-2.3,4.2-2.3c2.4,0,4.1,1.6,4.1,4v6.8h-3.3v-6.2c0-1.5-0.7-2.4-2-2.4c-1,0-1.9,0.6-2.6,1.8v6.8H198v-6.3
			c0-1.7-1-2.3-2-2.3c-0.9,0-1.8,0.5-2.6,1.5v7.1h-3.3v-10.6h3.3V102.8z"/>
		<path class="st0" d="M219.4,110.5c-1.1,1.2-2.1,1.7-3.4,1.7c-2.1,0-3.9-1.3-3.9-4v-6.8h3.3v6.6c0,1.5,0.8,2,1.7,2
			c1,0,1.9-0.8,2.3-1.8v-6.8h3.4v10.6h-3.3V110.5z"/>
		<path class="st0" d="M229.1,103c1.1-1.2,2.1-1.7,3.5-1.7c1.7,0,3.9,0.9,3.9,4.1v6.8h-3.3v-6.5c0-1.5-0.7-2.1-1.7-2.1
			c-0.8,0-1.5,0.4-2.3,1.8v6.8h-3.3v-10.6h3.3V103z"/>
		<path class="st0" d="M242.4,105.5c0.1-1.5,1-2.3,2.3-2.3c1.3,0,2.2,0.9,2.3,2.3H242.4z M249.8,108.8c-1.6,1.1-2.6,1.5-3.9,1.5
			c-2.1,0-3.4-1.1-3.5-3h7.6c0.2-3.9-2.4-6.1-5.5-6.1c-3.3,0-5.6,2.3-5.6,5.6c0,3.3,2.4,5.5,6.2,5.5c0.8,0,2.8,0,4.7-1.4V108.8z"/>
	</g>
	<g>
		<polygon class="st0" points="151.8,54.3 151.4,37.7 150.3,36.8 150.2,31 151.3,29.8 151.3,27.8 138.3,27.8 138.3,29.8 139.5,31 
			139.3,36.8 138.3,37.7 137.9,54.3 		"/>
		<path class="st0" d="M150.1,26v-2c0-3.2-2.4-5.6-5.3-5.6s-5.3,2.3-5.3,5.6v2H150.1z"/>
		<polygon class="st0" points="97.1,54.3 97.5,37.7 98.5,36.8 98.7,31 97.5,29.8 97.5,27.8 110.6,27.8 110.6,29.8 109.4,31 
			109.5,36.8 110.6,37.7 111,54.3 		"/>
		<path class="st0" d="M98.8,26v-2c0-3.2,2.4-5.6,5.3-5.6c2.9,0,5.3,2.3,5.3,5.6v2H98.8z"/>
		<polygon class="st0" points="104,8.7 103.2,11.6 100.2,10.9 102.3,13.1 100.2,15.3 103.2,14.7 104,17.6 104.9,14.7 107.9,15.3 
			105.8,13.1 107.9,10.9 104.9,11.6 		"/>
		<polygon class="st0" points="144.8,8.7 145.7,11.6 148.7,10.9 146.6,13.1 148.7,15.3 145.7,14.7 144.8,17.6 143.9,14.7 141,15.3 
			143,13.1 141,10.9 143.9,11.6 		"/>
		<path class="st0" d="M132.7,54.3l-0.6-20.6l1.1-1.2v-2.6h-17.6v2.6l1.1,1.2l-0.6,20.6h5.1v-7.7c0-2,1.5-3.4,3.2-3.4
			c1.8,0,3.2,1.4,3.2,3.4v7.7H132.7z"/>
		<polygon class="st0" points="131.5,28.2 131.3,23.6 132.4,22.5 132.4,19.1 129.2,19.1 129.2,22.1 126,22.1 126,19.2 122.9,19.2 
			122.9,22.1 119.7,22.1 119.7,19.1 116.5,19.1 116.5,22.5 117.5,23.6 117.4,28.2 		"/>
		<polygon class="st0" points="130.9,17.7 124.4,6.8 118,17.7 		"/>
		<path class="st0" d="M121.9,3.1c-0.1-1.6,1.2-3,2.8-3.1c1.3-0.1,2,0.6,2.1,0.7c0.1,0.1,0.1,0.1,0,0.2c-0.1,0.1-0.1,0.1-0.2,0
			c-0.2-0.1-0.5-0.3-1.1-0.2c-1.2,0.1-2.1,1.1-2.1,2.3c0.1,1.2,1.1,2.1,2.3,2.1c0.6,0,0.9-0.2,1.1-0.3c0.1,0,0.2,0,0.2,0
			c0.1,0.1,0,0.2,0,0.2c-0.1,0.1-0.8,0.9-2,0.9C123.3,6,121.9,4.8,121.9,3.1z"/>
		<path class="st0" d="M124.4,84.5c5.6,0,9.7-4,10.9-8.1c0.6,4.3,4.7,5.7,8.2,3.8c2-1.1,3.8-2.9,5.1-5.6c0.1-0.1,0.1-0.3-0.1-0.3
			c-0.1-0.1-0.2,0-0.3,0.1c-0.9,1.4-2.1,2.5-3.4,2.9c-4.6,1.4-8.7-1.6-9.3-5.9c0-0.2-0.1-0.3-0.2-0.3c-0.1,0-0.2,0.1-0.3,0.2
			c-1.1,4.3-5.3,8-10.7,8c-5.4,0-9.6-3.7-10.7-8c0-0.2-0.1-0.3-0.2-0.2c-0.1,0-0.2,0.1-0.2,0.3c-0.6,4.3-4.7,7.3-9.3,5.9
			c-1.3-0.4-2.4-1.5-3.4-2.9c-0.1-0.1-0.2-0.2-0.3-0.1c-0.1,0.1-0.1,0.2-0.1,0.3c1.3,2.7,3.2,4.5,5.1,5.6c3.5,1.9,7.6,0.5,8.2-3.8
			C114.7,80.5,118.9,84.5,124.4,84.5z"/>
		<path class="st0" d="M124.4,64.7c-5.7,0-9.6-3.7-11-7.7c-2.3,8.2-12.8,9.8-16.4,4.1c-1.4-2.1-2-5.2-2.2-8c0-0.1,0-0.3,0.2-0.3
			c0.1,0,0.2,0.1,0.3,0.2c0.9,3.6,2.7,4.8,5,5.6c5.5,2,11.9-0.8,13-6.9c0-0.2,0.1-0.3,0.2-0.3c0.1,0,0.2,0.1,0.2,0.3
			c0.9,4.2,5.5,7.6,10.8,7.6c5.3,0,9.8-3.4,10.8-7.6c0-0.2,0.1-0.3,0.2-0.3c0.1,0,0.2,0.1,0.2,0.3c1.2,6.1,7.5,8.9,13,6.9
			c2.3-0.8,4.1-2,5-5.6c0-0.1,0.1-0.2,0.3-0.2c0.1,0,0.2,0.2,0.2,0.3c-0.3,2.8-0.9,5.9-2.2,8c-3.6,5.7-14.1,4.1-16.4-4.1
			C134,61,130.2,64.7,124.4,64.7z"/>
		<path class="st0" d="M124.4,74.6c5.6,0,10-3.9,10.9-8.4c1.1,7,10.2,10,14.6,4.8c1.7-2,2.5-4.7,3-7.6c0-0.1,0-0.3-0.2-0.3
			c-0.1,0-0.2,0.1-0.3,0.2c-1,3.1-2.4,4.6-4.7,5.3c-5.9,2-11.2-2-12.2-7.1c0-0.2-0.1-0.3-0.2-0.3c-0.1,0-0.2,0.1-0.3,0.2
			c-0.5,2.9-4.3,7.8-10.7,7.8c-6.4,0-10.2-5-10.7-7.8c0-0.2-0.1-0.2-0.3-0.2c-0.1,0-0.2,0.1-0.2,0.3c-1,5.1-6.3,9.2-12.2,7.1
			c-2.2-0.8-3.7-2.2-4.7-5.3c0-0.1-0.2-0.2-0.3-0.2c-0.1,0-0.2,0.2-0.2,0.3c0.5,2.9,1.4,5.7,3,7.6c4.4,5.2,13.5,2.2,14.6-4.8
			C114.4,70.6,118.9,74.6,124.4,74.6z"/>
	</g>
</g>
</svg>
